# xmcd
#
# Track frame offsets:
#	183
#	17178
#	29088
#	48490
#	67345
#	86493
#	100540
#	115728
#	135163
#	154568
#	173013
#	185528
#	205295
#	226118
#	247360
#
# Disc length: 3500
#
# Revision: 2
# Processed by: cddbd v1.5.1PL0 Copyright (c) Steve Scherf et al.
# Submitted via: CDCOPY 4.744
# Normalized: r1:TDELIM( - )
#
DISCID=c70daa0f
DTITLE=Various Artist - Agua e Oro CD1
DYEAR=1900
DGENRE=
TTITLE0=Gal Costa - Garota de Ipanema
TTITLE1=Caetano Veloso - Mi cocodrilo verde
TTITLE2=Karen Ramirez - Troubled girl
TTITLE3=Daudè - Vamos fugir
TTITLE4=Ana Carolina - A cancao tocou na hora herrada
TTITLE5=Ivan Lins - Abre alas
TTITLE6=Smoke City - Aguas de Marco
TTITLE7=Daniela Mercury - Vocè Abusou
TTITLE8=Toquinho - Aquarela
TTITLE9=Renada Arruda - Un do outro
TTITLE10=Chico Buarque - Chao de Esmeraldas
TTITLE11=Pato Fù - Saudade
TTITLE12=Baby do Brasil - O Jarro
TTITLE13=Djavan - Agua de lua
TTITLE14=Lulu Santos - Mala e Cia
EXTD=
EXTT0=
EXTT1=
EXTT2=
EXTT3=
EXTT4=
EXTT5=
EXTT6=
EXTT7=
EXTT8=
EXTT9=
EXTT10=
EXTT11=
EXTT12=
EXTT13=
EXTT14=
PLAYORDER=
